<?xml version="1.0" standalone="no"?>
<!DOCTYPE svg PUBLIC "-//W3C//DTD SVG 20010904//EN"
 "http://www.w3.org/TR/2001/REC-SVG-20010904/DTD/svg10.dtd">
<svg version="1.0" xmlns="http://www.w3.org/2000/svg"
 width="512.000000pt" height="512.000000pt" viewBox="0 0 512.000000 512.000000"
 preserveAspectRatio="xMidYMid meet">
<metadata>
Created by potrace 1.14, written by Peter Selinger 2001-2017
</metadata>
<g transform="translate(0.000000,512.000000) scale(0.100000,-0.100000)"
fill="#000000" stroke="none">
<path d="M520 5112 c-219 -30 -407 -186 -484 -400 l-31 -87 -1 -2048 c-1
-1615 2 -2059 12 -2100 18 -74 34 -115 67 -172 80 -137 191 -226 344 -276 66
-22 82 -22 551 -25 l482 -2 0 199 c0 152 -3 199 -12 200 -7 0 -206 1 -441 1
-238 0 -444 4 -463 10 -46 12 -103 64 -124 111 -16 35 -17 110 -17 938 l0 899
2157 0 2158 0 -2 -907 -1 -908 -23 -40 c-26 -45 -73 -82 -123 -95 -19 -4 -218
-8 -444 -9 -225 0 -420 0 -432 0 l-23 -1 0 -199 0 -199 483 2 482 2 71 27 c40
15 93 39 119 53 74 42 175 149 219 233 75 144 69 -51 71 2221 2 2192 4 2093
-47 2213 -70 164 -200 281 -375 338 -66 22 -82 22 -545 25 l-478 2 0 -199 0
-199 23 -1 c12 0 213 -1 445 -1 424 -1 424 -1 470 -24 52 -26 90 -74 102 -128
4 -19 8 -433 8 -920 l0 -886 -2158 0 -2158 0 0 888 c0 537 3 902 9 925 13 48
63 105 112 127 34 16 84 18 455 18 229 0 432 1 450 1 l32 1 0 199 0 198 -457
0 c-252 -1 -469 -3 -483 -5z"/>
<path d="M2423 4984 c-76 -75 -307 -304 -515 -510 l-376 -373 139 -143 140
-142 142 141 c78 78 202 200 275 272 l132 131 0 -590 0 -590 200 0 200 0 0
587 0 588 269 -269 269 -269 141 142 141 142 -509 509 -509 510 -139 -136z"/>
<path d="M2360 1355 c0 -322 -2 -585 -5 -585 -3 0 -125 118 -271 263 -146 144
-267 264 -270 266 -2 3 -67 -60 -144 -138 l-139 -143 139 -137 c76 -75 308
-304 515 -509 l376 -372 510 509 510 510 -142 142 -141 141 -269 -268 -269
-269 0 588 0 587 -200 0 -200 0 0 -585z"/>
</g>
</svg>
